<svg width="369" height="369" viewBox="0 0 369 369" fill="none" xmlns="http://www.w3.org/2000/svg">
<path d="M262.741 236.608C262.741 302.637 210.248 356.148 145.516 356.148C80.7833 356.148 28.2908 302.637 28.2908 236.608C28.2908 170.578 80.7833 117.067 145.516 117.067C210.248 117.067 262.741 170.578 262.741 236.608Z" stroke="#CAC8C7"/>
<circle cx="160.955" cy="211.133" r="148.104" stroke="#CAC8C7"/>
<circle cx="184.5" cy="184.5" r="184" stroke="#CAC8C7"/>
<path d="M179.144 273.592C179.144 270.475 181.389 268.103 184.51 268.103C185.235 268.088 185.955 268.221 186.627 268.491C187.3 268.762 187.911 269.166 188.423 269.678C188.936 270.191 189.34 270.802 189.61 271.474C189.881 272.147 190.013 272.867 189.999 273.592C190.003 274.314 189.864 275.029 189.589 275.697C189.315 276.365 188.911 276.972 188.4 277.482C187.89 277.993 187.283 278.397 186.615 278.671C185.948 278.946 185.232 279.085 184.51 279.081C183.794 279.083 183.086 278.941 182.426 278.664C181.766 278.388 181.168 277.981 180.668 277.47C180.167 276.958 179.775 276.351 179.513 275.685C179.251 275.019 179.126 274.307 179.144 273.592Z" fill="#CAC8C7"/>
<path d="M118.713 233.048C122.957 222.206 130.814 216.211 140.797 216.211C153.394 216.211 159.504 222.946 159.504 235.917V270.726C159.504 272.843 160.129 273.094 161.005 273.094H169.751V277.707H143.539V273.094H151.647C152.646 273.094 153.143 272.843 153.143 270.726V236.419C153.143 226.066 149.279 221.198 139.547 221.198C127.323 221.198 118.713 233.048 118.713 251.887V270.726C118.713 272.843 119.215 273.094 120.21 273.094H128.815V277.707H102.123V273.094H110.856C111.737 273.094 112.353 272.843 112.353 270.726V202.24C112.353 200.118 111.979 199.493 110.856 199.493H102V194.88H105.486C109.902 194.875 114.313 194.581 118.691 194L118.713 233.048Z" fill="#CAC8C7"/>
</svg>
