<svg width="420" height="415" viewBox="0 0 420 415" fill="none" xmlns="http://www.w3.org/2000/svg">
<g opacity="0.3">
<path d="M299.123 269.31C299.123 344.502 239.346 405.441 165.628 405.441C91.909 405.441 32.1317 344.502 32.1317 269.31C32.1317 194.117 91.909 133.178 165.628 133.178C239.346 133.178 299.123 194.117 299.123 269.31Z" stroke="#94918E"/>
<circle cx="183.201" cy="240.314" r="168.642" stroke="#94918E"/>
<circle cx="210" cy="210" r="209.5" stroke="#94918E"/>
</g>
<path d="M210.401 305.739C210.401 301.819 213.225 298.834 217.152 298.834C218.063 298.816 218.97 298.982 219.816 299.323C220.662 299.663 221.43 300.171 222.075 300.816C222.72 301.461 223.228 302.23 223.568 303.076C223.909 303.922 224.075 304.828 224.057 305.739C224.062 306.648 223.887 307.548 223.542 308.388C223.197 309.228 222.688 309.992 222.046 310.634C221.404 311.276 220.641 311.785 219.8 312.13C218.96 312.475 218.06 312.65 217.152 312.645C216.251 312.647 215.36 312.469 214.529 312.121C213.699 311.773 212.947 311.262 212.318 310.618C211.688 309.974 211.194 309.211 210.865 308.373C210.536 307.535 210.378 306.639 210.401 305.739Z" fill="#CAC8C7"/>
<path d="M134.374 254.732C139.712 241.092 149.597 233.55 162.157 233.55C178.006 233.55 185.692 242.023 185.692 258.342V302.134C185.692 304.798 186.478 305.114 187.58 305.114H198.584V310.917H165.607V305.114H175.807C177.064 305.114 177.69 304.798 177.69 302.134V258.974C177.69 245.949 172.828 239.824 160.584 239.824C145.206 239.824 134.374 254.732 134.374 278.433V302.134C134.374 304.798 135.005 305.114 136.257 305.114H147.083V310.917H113.502V305.114H124.489C125.597 305.114 126.372 304.798 126.372 302.134V215.973C126.372 213.304 125.901 212.518 124.489 212.518H113.347V206.714H117.733C123.289 206.707 128.839 206.337 134.346 205.607L134.374 254.732Z" fill="#CAC8C7"/>
</svg>
