<svg width="97" height="97" viewBox="0 0 97 97" fill="none" xmlns="http://www.w3.org/2000/svg">
<path d="M68.6987 62.1977C68.6987 79.3583 55.0582 93.2531 38.2521 93.2531C21.446 93.2531 7.80542 79.3583 7.80542 62.1977C7.80542 45.037 21.446 31.1422 38.2521 31.1422C55.0582 31.1422 68.6987 45.037 68.6987 62.1977Z" stroke="#131616"/>
<circle cx="42.3107" cy="55.5009" r="38.5638" stroke="#131616"/>
<circle cx="48.5" cy="48.5" r="48" stroke="#131616"/>
<path d="M47.0921 71.9197C47.0921 71.1005 47.6822 70.4768 48.5026 70.4768C48.6931 70.4731 48.8825 70.5078 49.0592 70.579C49.236 70.6502 49.3966 70.7563 49.5313 70.891C49.6661 71.0258 49.7722 71.1864 49.8434 71.3631C49.9146 71.5399 49.9493 71.7292 49.9455 71.9197C49.9466 72.1095 49.91 72.2976 49.8379 72.4732C49.7657 72.6487 49.6595 72.8082 49.5253 72.9424C49.3911 73.0766 49.2316 73.1828 49.0561 73.255C48.8805 73.3271 48.6924 73.3637 48.5026 73.3626C48.3145 73.3631 48.1282 73.3259 47.9547 73.2532C47.7812 73.1805 47.6241 73.0737 47.4925 72.9392C47.361 72.8046 47.2579 72.6451 47.1891 72.47C47.1203 72.2949 47.0873 72.1078 47.0921 71.9197V71.9197Z" fill="#131616"/>
<path d="M31.2065 61.2619C32.3219 58.4119 34.3873 56.836 37.0116 56.836C40.3232 56.836 41.9292 58.6063 41.9292 62.0163V71.1665C41.9292 71.7231 42.0935 71.789 42.3238 71.789H44.6229V73.0017H37.7324V71.789H39.8638C40.1265 71.789 40.2572 71.7231 40.2572 71.1665V62.1482C40.2572 59.4267 39.2413 58.147 36.683 58.147C33.4697 58.147 31.2065 61.2619 31.2065 66.2142V71.1665C31.2065 71.7231 31.3384 71.789 31.5999 71.789H33.862V73.0017H26.8454V71.789H29.1411C29.3725 71.789 29.5345 71.7231 29.5345 71.1665V53.1634C29.5345 52.6057 29.4361 52.4414 29.1411 52.4414H26.813V51.2287H27.7294C28.8903 51.2273 30.0499 51.15 31.2007 50.9973L31.2065 61.2619Z" fill="#131616"/>
</svg>
