<svg width="303" height="145" viewBox="0 0 303 145" fill="none" xmlns="http://www.w3.org/2000/svg">
<path d="M23.199 54.1633C29.0889 39.1224 39.9949 30.8083 53.852 30.8083C71.3384 30.8083 79.8249 40.1479 79.8249 58.1372V106.404C79.8249 109.346 80.6864 109.694 81.9022 109.694H94.0242V116.091H57.6585V109.694H68.9128C70.2997 109.694 70.9901 109.346 70.9901 106.404V58.8331C70.9901 44.4697 65.6257 37.7245 52.1168 37.7245C35.1498 37.7245 23.199 54.1633 23.199 80.2836V106.404C23.199 109.346 23.8955 109.694 25.2764 109.694H37.2272V116.091H0.195514V109.694H12.293C13.5149 109.694 14.3703 109.346 14.3703 106.404V11.4333C14.3703 8.49106 13.851 7.62425 12.293 7.62425H0V1.22086H4.84509C10.975 1.21273 17.0978 0.804911 23.1746 0L23.199 54.1633Z" fill="white"/>
<path d="M186.307 116.091C180.177 116.085 174.053 116.493 167.977 117.312V95.5075C162.436 109.547 151.872 117.996 137.844 117.996C121.744 117.996 111.871 110.213 111.871 91.1795V42.2231C111.871 39.4579 111.009 38.939 109.794 38.939H97.6472V32.5356H120.681V90.6668C120.681 106.062 127.781 110.902 139.555 110.902C156.522 110.902 167.776 94.8177 167.776 73.1902V42.2231C167.776 39.4579 166.914 38.939 165.699 38.939H153.406V32.5356H176.623V105.885C176.623 108.827 177.142 109.694 178.7 109.694H190.822V116.091H186.307Z" fill="white"/>
<path d="M206.213 75.4429C206.213 95.6786 218.335 111.422 238.766 111.422C256.081 111.422 265.778 102.265 269.242 87.8956L275.822 89.788C272.358 106.05 259.888 117.984 238.595 117.984C213.141 117.984 197.207 99.2984 197.207 74.3868C197.207 48.9564 213.832 30.7961 238.418 30.7961C261.275 30.7961 276.17 47.058 276.17 71.2737V75.4307L206.213 75.4429ZM206.213 69.3874H267.311C267.14 49.6645 256.228 37.0347 238.222 37.0347C219.538 37.0347 207.771 50.3543 206.213 69.3874Z" fill="white"/>
<path d="M287.932 110.384C287.932 106.062 291.048 102.772 295.379 102.772C296.386 102.752 297.385 102.935 298.319 103.311C299.252 103.686 300.1 104.246 300.811 104.957C301.523 105.668 302.083 106.515 302.459 107.447C302.835 108.38 303.018 109.379 302.998 110.384C303.004 111.385 302.811 112.377 302.43 113.303C302.049 114.23 301.488 115.071 300.78 115.779C300.071 116.487 299.229 117.047 298.302 117.428C297.375 117.808 296.382 118.001 295.379 117.996C294.386 117.999 293.402 117.802 292.486 117.419C291.57 117.035 290.74 116.472 290.046 115.762C289.352 115.052 288.807 114.211 288.444 113.287C288.08 112.363 287.906 111.376 287.932 110.384V110.384Z" fill="white"/>
<path d="M97.9527 139.031C97.9402 138.244 98.0868 137.462 98.3838 136.733C98.6807 136.003 99.1219 135.341 99.6809 134.786C100.24 134.231 100.905 133.794 101.637 133.502C102.369 133.21 103.152 133.068 103.94 133.086C106.042 133.086 107.545 133.843 108.59 135.46L106.757 136.76C106.465 136.28 106.05 135.886 105.555 135.618C105.06 135.351 104.503 135.221 103.94 135.24C101.832 135.24 100.415 136.864 100.415 139.031C100.415 141.198 101.832 142.859 103.94 142.859C104.548 142.876 105.148 142.726 105.675 142.424C106.202 142.123 106.636 141.682 106.928 141.149L108.798 142.431C108.284 143.247 107.565 143.913 106.712 144.363C105.86 144.813 104.904 145.031 103.94 144.995C103.151 145.011 102.367 144.867 101.635 144.574C100.902 144.28 100.237 143.841 99.678 143.284C99.1191 142.728 98.6782 142.064 98.3818 141.333C98.0854 140.603 97.9394 139.82 97.9527 139.031V139.031Z" fill="white"/>
<path d="M114.015 133.226H116.41V139.172H121.384V133.226H123.779V144.824H121.384V141.308H116.41V144.843H114.015V133.226Z" fill="white"/>
<path d="M129.724 133.226H132.119V144.824H129.724V133.226Z" fill="white"/>
<path d="M137.581 139.031C137.569 138.244 137.715 137.462 138.012 136.733C138.309 136.003 138.75 135.341 139.309 134.786C139.868 134.231 140.534 133.794 141.266 133.502C141.997 133.21 142.781 133.068 143.569 133.086C145.671 133.086 147.174 133.843 148.218 135.46L146.385 136.76C146.092 136.28 145.676 135.886 145.18 135.619C144.684 135.352 144.126 135.222 143.563 135.24C141.461 135.24 140.037 136.864 140.037 139.031C140.037 141.198 141.461 142.859 143.563 142.859C144.171 142.875 144.771 142.725 145.299 142.423C145.827 142.122 146.262 141.681 146.556 141.149L148.42 142.431C147.904 143.251 147.18 143.92 146.321 144.37C145.463 144.821 144.501 145.036 143.532 144.995C142.746 145.006 141.966 144.859 141.238 144.563C140.51 144.266 139.849 143.827 139.294 143.271C138.739 142.715 138.301 142.053 138.007 141.325C137.713 140.596 137.568 139.816 137.581 139.031V139.031Z" fill="white"/>
<path d="M157.383 133.128H157.585L162.906 144.848H160.389L159.845 143.505H155.122L154.579 144.824H152.269L157.383 133.128ZM158.99 141.534L158.153 139.519C157.811 138.695 157.45 137.432 157.45 137.432C157.258 138.139 157.03 138.836 156.766 139.519L155.929 141.534H158.99Z" fill="white"/>
<path d="M166.493 139.031C166.46 138.243 166.591 137.457 166.878 136.722C167.164 135.987 167.6 135.32 168.157 134.761C168.714 134.203 169.381 133.766 170.116 133.477C170.85 133.189 171.637 133.056 172.426 133.086C174.326 133.086 175.694 133.598 176.647 134.691L175.022 136.297C174.697 135.936 174.295 135.654 173.845 135.471C173.395 135.288 172.91 135.209 172.426 135.241C170.324 135.241 168.955 136.864 168.955 139.031C168.924 139.544 169.002 140.057 169.184 140.537C169.367 141.017 169.65 141.452 170.014 141.814C170.378 142.176 170.815 142.457 171.296 142.637C171.778 142.817 172.292 142.893 172.804 142.859C173.583 142.873 174.357 142.728 175.077 142.431V140.722H172.273V138.622H177.265V143.646C175.958 144.556 174.397 145.028 172.804 144.995C169.004 144.995 166.493 142.468 166.493 139.031Z" fill="white"/>
<path d="M182.562 139.031C182.551 137.839 182.895 136.67 183.55 135.673C184.205 134.676 185.142 133.896 186.242 133.432C187.342 132.968 188.555 132.841 189.727 133.067C190.899 133.293 191.978 133.861 192.826 134.701C193.674 135.54 194.253 136.613 194.49 137.782C194.727 138.951 194.611 140.164 194.157 141.267C193.703 142.37 192.93 143.313 191.939 143.977C190.947 144.641 189.78 144.995 188.586 144.995C187.795 145.012 187.008 144.87 186.273 144.578C185.538 144.285 184.869 143.847 184.307 143.29C183.745 142.734 183.301 142.07 183.001 141.338C182.701 140.606 182.552 139.822 182.562 139.031V139.031ZM192.142 139.031C192.142 136.864 190.706 135.204 188.586 135.204C186.466 135.204 185.024 136.864 185.024 139.031C185.024 141.198 186.46 142.859 188.586 142.859C190.712 142.859 192.142 141.204 192.142 139.031Z" fill="white"/>
</svg>
