<svg width="111" height="53" viewBox="0 0 111 53" fill="none" xmlns="http://www.w3.org/2000/svg">
<path d="M8.49865 19.7976C10.6563 14.2999 14.6516 11.261 19.728 11.261C26.1339 11.261 29.2428 14.6747 29.2428 21.2502V38.8924C29.2428 39.9679 29.5584 40.0951 30.0038 40.0951H34.4445V42.4334H21.1224V40.0951H25.2453C25.7534 40.0951 26.0063 39.9679 26.0063 38.8924V21.5045C26.0063 16.2545 24.0411 13.789 19.0923 13.789C12.8767 13.789 8.49865 19.7976 8.49865 29.345V38.8924C8.49865 39.9679 8.75381 40.0951 9.25966 40.0951H13.6377V42.4334H0.0716241V40.0951H4.50337C4.95102 40.0951 5.26437 39.9679 5.26437 38.8924V4.17908C5.26437 3.10363 5.07412 2.7868 4.50337 2.7868H0V0.446244H1.77494C4.02055 0.443274 6.26357 0.294209 8.4897 0L8.49865 19.7976Z" fill="white"/>
<path d="M68.251 42.4333C66.0053 42.4311 63.7619 42.5802 61.5363 42.8795V34.9096C59.5062 40.0414 55.6362 43.1294 50.4972 43.1294C44.5994 43.1294 40.9824 40.2846 40.9824 33.3277V15.4333C40.9824 14.4225 40.6668 14.2329 40.2214 14.2329H35.7717V11.8923H44.2099V33.1403C44.2099 38.7674 46.8108 40.5368 51.1239 40.5368C57.3395 40.5368 61.4624 34.6575 61.4624 26.7523V15.4333C61.4624 14.4225 61.1468 14.2329 60.7014 14.2329H56.198V11.8923H64.7034V38.7027C64.7034 39.7781 64.8937 40.095 65.4644 40.095H69.9051V42.4333H68.251Z" fill="white"/>
<path d="M75.5433 27.5757C75.5433 34.9722 79.984 40.7266 87.4687 40.7266C93.812 40.7266 97.3641 37.3797 98.6332 32.1274L101.044 32.8191C99.7747 38.7631 95.2064 43.1251 87.4061 43.1251C78.0815 43.1251 72.2441 36.2954 72.2441 27.1897C72.2441 17.8945 78.3344 11.2566 87.3412 11.2566C95.7145 11.2566 101.171 17.2006 101.171 26.0518V27.5713L75.5433 27.5757ZM75.5433 25.3624H97.9259C97.8632 18.1533 93.8657 13.5369 87.2695 13.5369C80.425 13.5369 76.1141 18.4054 75.5433 25.3624Z" fill="white"/>
<path d="M105.48 40.3471C105.48 38.7674 106.621 37.5647 108.208 37.5647C108.577 37.5575 108.943 37.6245 109.285 37.7617C109.627 37.8989 109.938 38.1036 110.198 38.3635C110.459 38.6233 110.664 38.9329 110.802 39.2738C110.94 39.6146 111.007 39.9797 110.999 40.3471C111.002 40.713 110.931 41.0758 110.791 41.4143C110.652 41.7528 110.446 42.0603 110.187 42.3191C109.927 42.5779 109.618 42.7827 109.279 42.9218C108.939 43.0609 108.575 43.1315 108.208 43.1294C107.844 43.1304 107.484 43.0587 107.148 42.9184C106.813 42.7782 106.509 42.5723 106.254 42.3128C106 42.0534 105.8 41.7458 105.667 41.4082C105.534 41.0705 105.471 40.7097 105.48 40.3471V40.3471Z" fill="white"/>
<path d="M35.8836 50.8183C35.879 50.5305 35.9327 50.2447 36.0415 49.9781C36.1503 49.7115 36.3119 49.4695 36.5167 49.2666C36.7215 49.0637 36.9652 48.9041 37.2333 48.7973C37.5015 48.6905 37.7884 48.6387 38.0771 48.6451C38.8471 48.6451 39.3977 48.9217 39.7804 49.513L39.1089 49.9882C39.002 49.8126 38.85 49.6685 38.6687 49.5708C38.4873 49.4732 38.2831 49.4255 38.0771 49.4327C37.3049 49.4327 36.7856 50.0262 36.7856 50.8183C36.7856 51.6103 37.3049 52.2172 38.0771 52.2172C38.2995 52.2236 38.5194 52.1687 38.7126 52.0585C38.9057 51.9482 39.0645 51.787 39.1716 51.5925L39.8565 52.0611C39.6684 52.3591 39.4049 52.6025 39.0926 52.767C38.7803 52.9315 38.4301 53.0112 38.0771 52.9982C37.788 53.0039 37.5008 52.9515 37.2325 52.8441C36.9642 52.7366 36.7204 52.5764 36.5156 52.3729C36.3109 52.1694 36.1494 51.9269 36.0408 51.6597C35.9322 51.3926 35.8787 51.1064 35.8836 50.8183V50.8183Z" fill="white"/>
<path d="M41.7681 48.6965H42.6455V50.8697H44.4674V48.6965H45.3448V52.9359H44.4674V51.6507H42.6455V52.9425H41.7681V48.6965Z" fill="white"/>
<path d="M47.5225 48.6965H48.3999V52.9359H47.5225V48.6965Z" fill="white"/>
<path d="M50.4009 50.8183C50.3964 50.5305 50.4501 50.2447 50.5588 49.9781C50.6676 49.7115 50.8292 49.4695 51.034 49.2666C51.2388 49.0637 51.4826 48.9041 51.7507 48.7973C52.0188 48.6905 52.3058 48.6387 52.5944 48.6451C53.3644 48.6451 53.915 48.9217 54.2977 49.513L53.6263 49.9882C53.5186 49.8127 53.3662 49.6688 53.1845 49.5712C53.0029 49.4736 52.7984 49.4258 52.5922 49.4327C51.8222 49.4327 51.3007 50.0262 51.3007 50.8183C51.3007 51.6103 51.8222 52.2172 52.5922 52.2172C52.8149 52.2233 53.035 52.1682 53.2284 52.0581C53.4218 51.9479 53.5811 51.7868 53.6889 51.5925L54.3716 52.0611C54.1825 52.3607 53.9173 52.6053 53.6028 52.7698C53.2884 52.9344 52.9358 53.0132 52.581 52.9982C52.293 53.0021 52.0072 52.9483 51.7405 52.8401C51.4738 52.7318 51.2316 52.5713 51.0283 52.368C50.825 52.1647 50.6647 51.9228 50.5569 51.6566C50.4492 51.3904 50.3961 51.1053 50.4009 50.8183V50.8183Z" fill="white"/>
<path d="M57.6552 48.6606H57.729L59.6785 52.9446H58.7564L58.5572 52.4537H56.827L56.6278 52.9357H55.7817L57.6552 48.6606ZM58.2438 51.733L57.9372 50.9967C57.8118 50.6955 57.6798 50.2337 57.6798 50.2337C57.6094 50.4921 57.5257 50.7468 57.4291 50.9967L57.1225 51.733H58.2438Z" fill="white"/>
<path d="M60.9925 50.8183C60.9806 50.5303 61.0286 50.2429 61.1335 49.9743C61.2384 49.7057 61.3979 49.4617 61.6021 49.2575C61.8062 49.0534 62.0505 48.8936 62.3197 48.7882C62.5888 48.6828 62.8769 48.6341 63.1659 48.6451C63.862 48.6451 64.3633 48.8325 64.7125 49.2319L64.1171 49.8187C63.9981 49.6869 63.8507 49.5837 63.6859 49.5169C63.5212 49.45 63.3434 49.4212 63.1659 49.4327C62.3959 49.4327 61.8945 50.0262 61.8945 50.8183C61.883 51.0056 61.9116 51.1932 61.9785 51.3686C62.0454 51.544 62.149 51.7031 62.2824 51.8355C62.4158 51.9679 62.576 52.0704 62.7522 52.1362C62.9285 52.202 63.1168 52.2297 63.3046 52.2173C63.59 52.2226 63.8734 52.1694 64.1373 52.0611V51.4363H63.1099V50.6688H64.9386V52.5051C64.46 52.8376 63.8879 53.0103 63.3046 52.9982C61.9124 52.9982 60.9925 52.0745 60.9925 50.8183Z" fill="white"/>
<path d="M66.8791 50.8182C66.8751 50.3823 67.0011 49.955 67.2412 49.5905C67.4812 49.2261 67.8245 48.941 68.2274 48.7714C68.6303 48.6018 69.0746 48.5554 69.5041 48.638C69.9335 48.7206 70.3286 48.9285 70.6393 49.2354C70.9499 49.5423 71.1621 49.9342 71.2489 50.3615C71.3357 50.7888 71.2932 51.2322 71.1268 51.6353C70.9603 52.0385 70.6775 52.3833 70.3142 52.6259C69.9508 52.8685 69.5233 52.9981 69.086 52.9981C68.7961 53.0044 68.508 52.9525 68.2387 52.8454C67.9694 52.7384 67.7245 52.5784 67.5185 52.375C67.3126 52.1715 67.1499 51.9289 67.04 51.6614C66.9301 51.394 66.8754 51.1072 66.8791 50.8182V50.8182ZM70.3887 50.8182C70.3887 50.0261 69.8627 49.4192 69.086 49.4192C68.3093 49.4192 67.7811 50.0261 67.7811 50.8182C67.7811 51.6103 68.3071 52.2172 69.086 52.2172C69.8649 52.2172 70.3887 51.6125 70.3887 50.8182Z" fill="white"/>
</svg>
