<svg width="528" height="528" viewBox="0 0 528 528" fill="none" xmlns="http://www.w3.org/2000/svg">
<g opacity="0.2">
<path d="M376.169 338.561C376.169 433.157 300.966 509.826 208.218 509.826C115.469 509.826 40.2656 433.157 40.2656 338.561C40.2656 243.964 115.469 167.295 208.218 167.295C300.966 167.295 376.169 243.964 376.169 338.561Z" stroke="#94918E"/>
<circle cx="230.31" cy="302.109" r="212.136" stroke="#94918E"/>
<circle cx="264" cy="264" r="263.5" stroke="#94918E"/>
</g>
<path d="M264.504 384.358C264.504 379.43 268.055 375.677 272.991 375.677C274.137 375.654 275.276 375.864 276.34 376.292C277.403 376.72 278.369 377.359 279.18 378.169C279.991 378.98 280.629 379.946 281.057 381.01C281.486 382.073 281.695 383.212 281.672 384.358C281.678 385.5 281.458 386.632 281.024 387.688C280.59 388.744 279.951 389.704 279.144 390.511C278.336 391.319 277.377 391.958 276.321 392.392C275.264 392.826 274.133 393.046 272.991 393.04C271.859 393.043 270.738 392.819 269.694 392.381C268.65 391.944 267.705 391.301 266.914 390.492C266.122 389.683 265.502 388.723 265.088 387.669C264.674 386.616 264.476 385.49 264.504 384.358Z" fill="#94918E"/>
<path d="M168.927 320.234C175.638 303.088 188.065 293.606 203.854 293.606C223.778 293.606 233.441 304.257 233.441 324.773V379.826C233.441 383.175 234.43 383.572 235.815 383.572H249.648V390.868H208.191V383.572H221.015C222.595 383.572 223.382 383.175 223.382 379.826V325.567C223.382 309.193 217.269 301.493 201.877 301.493C182.544 301.493 168.927 320.234 168.927 350.03V379.826C168.927 383.175 169.721 383.572 171.294 383.572H184.904V390.868H142.689V383.572H156.501C157.893 383.572 158.868 383.175 158.868 379.826V271.509C158.868 268.154 158.276 267.165 156.501 267.165H142.494V259.869H148.007C154.992 259.861 161.968 259.396 168.892 258.477L168.927 320.234Z" fill="#94918E"/>
</svg>
